<?xml version="1.0" encoding="UTF-8"?>
<svg width="280px" height="280px" viewBox="0 0 280 280" version="1.1" xmlns="http://www.w3.org/2000/svg" xmlns:xlink="http://www.w3.org/1999/xlink">
    <title>Group 6</title>
    <defs>
        <rect id="path-1" x="53" y="55" width="174" height="170" rx="5"></rect>
        <filter x="-7.2%" y="-6.8%" width="114.4%" height="114.7%" filterUnits="objectBoundingBox" id="filter-3">
            <feOffset dx="0" dy="1" in="SourceAlpha" result="shadowOffsetOuter1"></feOffset>
            <feGaussianBlur stdDeviation="4" in="shadowOffsetOuter1" result="shadowBlurOuter1"></feGaussianBlur>
            <feComposite in="shadowBlurOuter1" in2="SourceAlpha" operator="out" result="shadowBlurOuter1"></feComposite>
            <feColorMatrix values="0 0 0 0 0   0 0 0 0 0   0 0 0 0 0  0 0 0 0.257614456 0" type="matrix" in="shadowBlurOuter1"></feColorMatrix>
        </filter>
        <rect id="path-4" x="77" y="88" width="130" height="119" rx="1"></rect>
        <rect id="path-6" x="0" y="0" width="111" height="28" rx="1"></rect>
        <path d="M10.3924294,38.803684 C9.46256553,37.8738202 9.94729316,38.1359797 7.7044916,37.5356879 C6.68688459,37.262828 5.79233205,36.7385089 4.98338263,36.110396 L0.128616071,48.0135089 C-0.341131013,49.1659409 0.536300898,50.4178864 1.77968612,50.3708047 L7.41772117,50.1557268 L11.2955422,54.2518358 C12.1515733,55.1549487 13.653908,54.8735284 14.1236551,53.7210965 L19.6932076,40.0652599 C18.5332854,40.7115634 17.2460286,41.0903572 15.9149002,41.0903572 C13.8283243,41.0903572 11.868013,40.2781976 10.3924294,38.803684 Z M40.9613011,48.0135089 L36.1065345,36.110396 C35.2975851,36.7395789 34.4030326,37.262828 33.3854256,37.5356879 C31.1308536,38.1391898 31.6252116,37.8759603 30.6974878,38.803684 C29.2219042,40.2781976 27.2605228,41.0903572 25.1739469,41.0903572 C23.8428185,41.0903572 22.5555617,40.7104933 21.3956395,40.0652599 L26.9651921,53.7210965 C27.4349392,54.8735284 28.9383438,55.1549487 29.7933049,54.2518358 L33.672196,50.1557268 L39.3102311,50.3708047 C40.5536163,50.4178864 41.4310482,49.1648708 40.9613011,48.0135089 L40.9613011,48.0135089 Z M28.1422349,36.3821859 C29.7772544,34.7182754 29.9645112,34.8616606 32.2929158,34.2271275 C33.7791999,33.8215828 34.9412622,32.6391898 35.3393166,31.1261548 C36.1397057,28.0872442 35.9321182,28.4542676 38.1160676,26.2307267 C39.2042972,25.1232365 39.6291026,23.5085477 39.2310482,21.9955127 C38.4317291,18.9587423 38.4306591,19.3824777 39.2310482,16.3424971 C39.6291026,14.8294621 39.2042972,13.2147734 38.1160676,12.1072831 C35.9321182,9.88374221 36.1397057,10.2496955 35.3393166,7.21185504 C34.9412622,5.69882001 33.7791999,4.51642701 32.2929158,4.11088226 C29.3096473,3.29658265 29.6691804,3.50952039 27.4830909,1.28490948 C26.3948613,0.177419207 24.8079936,-0.255946554 23.3217096,0.149598195 C20.3395111,0.962827771 20.7557563,0.96389781 17.7682076,0.149598195 C16.2819235,-0.255946554 14.6950558,0.176349168 13.6068263,1.28490948 C11.4228768,3.50845035 11.7824099,3.29658265 8.79807137,4.11088226 C7.31178731,4.51642701 6.14972505,5.69882001 5.75167057,7.21185504 C4.9523515,10.2496955 5.15886901,9.88374221 2.97491959,12.1072831 C1.88669001,13.2147734 1.46081452,14.8294621 1.85993904,16.3424971 C2.65925811,19.3771275 2.66032815,18.9533921 1.85993904,21.9944427 C1.46188456,23.5074777 1.88669001,25.1221664 2.97491959,26.2307267 C5.15886901,28.4542676 4.95128146,28.0872442 5.75167057,31.1261548 C6.14972505,32.6391898 7.31178731,33.8215828 8.79807137,34.2271275 C11.1928185,34.8798513 11.371515,34.7771276 12.9476823,36.3821859 C14.3633438,37.8235283 16.568694,38.0814077 18.2700559,37.0049486 C19.6588952,36.1232423 21.432092,36.1232423 22.8209314,37.0049486 C24.5212232,38.0814077 26.7265734,37.8235283 28.1422349,36.3821859 Z M10.4502115,18.8292675 C10.4502115,13.1548512 14.9700558,8.55475388 20.5449586,8.55475388 C26.1198613,8.55475388 30.6397057,13.1548512 30.6397057,18.8292675 C30.6397057,24.5036839 26.1198613,29.1037812 20.5449586,29.1037812 C14.9700558,29.1037812 10.4502115,24.5036839 10.4502115,18.8292675 L10.4502115,18.8292675 Z" id="path-8"></path>
    </defs>
    <g id="Page-1" stroke="none" stroke-width="1" fill="none" fill-rule="evenodd">
        <g id="Large" transform="translate(-1256, -68)">
            <g id="Group-6" transform="translate(1256, 68)">
                <circle id="Oval" stroke="#C3C3C3" fill="#F5F5F5" cx="140" cy="140" r="139.5"></circle>
                <mask id="mask-2" fill="white">
                    <use xlink:href="#path-1"></use>
                </mask>
                <g id="Rectangle">
                    <use fill="black" fill-opacity="1" filter="url(#filter-3)" xlink:href="#path-1"></use>
                    <rect stroke="#979797" stroke-width="1" stroke-linejoin="square" fill-opacity="0.104982176" fill="#FFFFFF" fill-rule="evenodd" x="53.5" y="55.5" width="173" height="169" rx="5"></rect>
                </g>
                <rect id="Rectangle" fill="#979797" mask="url(#mask-2)" x="51" y="55" width="178" height="14"></rect>
                <g id="Group-2" mask="url(#mask-2)" fill="#FFFFFF">
                    <g transform="translate(58, 60)">
                        <circle id="Oval" cx="2" cy="2" r="2"></circle>
                        <circle id="Oval-Copy" cx="8" cy="2" r="2"></circle>
                        <circle id="Oval-Copy-2" cx="14" cy="2" r="2"></circle>
                    </g>
                </g>
                <rect id="Rectangle" fill="#979797" mask="url(#mask-2)" x="77" y="75" width="39" height="6"></rect>
                <mask id="mask-5" fill="white">
                    <use xlink:href="#path-4"></use>
                </mask>
                <rect stroke="#979797" x="77.5" y="88.5" width="129" height="118" rx="1"></rect>
                <g id="Group-5" mask="url(#mask-5)">
                    <g transform="translate(84, 91)">
                        <g id="Group-4" transform="translate(3, 71)">
                            <rect id="Rectangle-Copy-10" fill="#979797" x="32" y="6" width="24.2696629" height="3"></rect>
                            <rect id="Rectangle-Copy-11" fill="#979797" x="32" y="12" width="72" height="3"></rect>
                            <rect id="Rectangle-Copy-12" fill="#979797" x="32" y="18" width="72" height="3"></rect>
                            <mask id="mask-7" fill="white">
                                <use xlink:href="#path-6"></use>
                            </mask>
                            <rect stroke="#979797" x="0.5" y="0.5" width="110" height="27" rx="1"></rect>
                        </g>
                        <g id="award" transform="translate(12.455, 5.6061)">
                            <mask id="mask-9" fill="white">
                                <use xlink:href="#path-8"></use>
                            </mask>
                            <g fill-rule="nonzero"></g>
                            <g id="🎨-color" mask="url(#mask-9)" fill="#979797">
                                <g transform="translate(-12.455, -5.6061)" id="🎨-Color">
                                    <rect x="0" y="0" width="66" height="66"></rect>
                                </g>
                            </g>
                        </g>
                    </g>
                </g>
            </g>
        </g>
    </g>
</svg>